<mxfile host="65bd71144e">
    <diagram id="uiAKNhMBBpsM2vkuvCDe" name="Page-1">
        <mxGraphModel dx="1315" dy="565" grid="1" gridSize="10" guides="1" tooltips="1" connect="1" arrows="1" fold="1" page="1" pageScale="1" pageWidth="850" pageHeight="1100" math="1" shadow="0">
            <root>
                <mxCell id="0"/>
                <mxCell id="1" parent="0"/>
                <mxCell id="8" value="" style="rounded=0;whiteSpace=wrap;html=1;fillColor=none;" parent="1" vertex="1">
                    <mxGeometry x="60" y="150" width="160" height="260" as="geometry"/>
                </mxCell>
                <mxCell id="18" value="" style="edgeStyle=orthogonalEdgeStyle;rounded=0;orthogonalLoop=1;jettySize=auto;html=1;fontSize=14;" parent="1" source="2" target="3" edge="1">
                    <mxGeometry relative="1" as="geometry"/>
                </mxCell>
                <mxCell id="2" value="Алгоритм определения ориентации" style="rounded=0;whiteSpace=wrap;html=1;" parent="1" vertex="1">
                    <mxGeometry x="380" y="200" width="120" height="60" as="geometry"/>
                </mxCell>
                <mxCell id="3" value="Алгоритм определения положения" style="rounded=0;whiteSpace=wrap;html=1;" parent="1" vertex="1">
                    <mxGeometry x="380" y="300" width="120" height="60" as="geometry"/>
                </mxCell>
                <mxCell id="4" value="БИНС&lt;sup&gt;1&lt;/sup&gt;" style="rounded=0;whiteSpace=wrap;html=1;" parent="1" vertex="1">
                    <mxGeometry x="80" y="200" width="120" height="60" as="geometry"/>
                </mxCell>
                <mxCell id="6" value="ГНСС" style="rounded=0;whiteSpace=wrap;html=1;" parent="1" vertex="1">
                    <mxGeometry x="80" y="300" width="120" height="60" as="geometry"/>
                </mxCell>
                <mxCell id="9" value="Датчики" style="text;html=1;strokeColor=none;fillColor=none;align=center;verticalAlign=middle;whiteSpace=wrap;rounded=0;" parent="1" vertex="1">
                    <mxGeometry x="120" y="160" width="40" height="20" as="geometry"/>
                </mxCell>
                <mxCell id="10" value="Функциональная схема работы системы&lt;br style=&quot;font-size: 14px;&quot;&gt;" style="text;html=1;strokeColor=none;fillColor=none;align=center;verticalAlign=middle;whiteSpace=wrap;rounded=0;fontSize=14;" parent="1" vertex="1">
                    <mxGeometry x="390" y="20" width="120" height="20" as="geometry"/>
                </mxCell>
                <mxCell id="14" value="" style="endArrow=classic;html=1;fontSize=14;exitX=1;exitY=0.5;exitDx=0;exitDy=0;entryX=0;entryY=0.5;entryDx=0;entryDy=0;" parent="1" source="4" target="2" edge="1">
                    <mxGeometry width="50" height="50" relative="1" as="geometry">
                        <mxPoint x="400" y="300" as="sourcePoint"/>
                        <mxPoint x="450" y="250" as="targetPoint"/>
                    </mxGeometry>
                </mxCell>
                <mxCell id="19" value="" style="endArrow=classic;html=1;fontSize=14;entryX=0;entryY=0.5;entryDx=0;entryDy=0;" parent="1" target="3" edge="1">
                    <mxGeometry width="50" height="50" relative="1" as="geometry">
                        <mxPoint x="220" y="330" as="sourcePoint"/>
                        <mxPoint x="450" y="250" as="targetPoint"/>
                    </mxGeometry>
                </mxCell>
                <mxCell id="20" value="$$n_X, n_Y, n_Z, \\&lt;br&gt;\omega_X, \omega_Y, \omega_Z,\\&lt;br&gt;m_X, m_Y$$" style="text;html=1;strokeColor=none;fillColor=none;align=center;verticalAlign=middle;whiteSpace=wrap;rounded=0;fontSize=14;" parent="1" vertex="1">
                    <mxGeometry x="250" y="150" width="100" height="70" as="geometry"/>
                </mxCell>
                <mxCell id="22" value="$$n_X, n_Y, n_Z,\\&lt;br&gt;\varphi, \lambda, h$$" style="text;html=1;strokeColor=none;fillColor=none;align=center;verticalAlign=middle;whiteSpace=wrap;rounded=0;fontSize=14;" parent="1" vertex="1">
                    <mxGeometry x="245" y="270" width="110" height="50" as="geometry"/>
                </mxCell>
                <mxCell id="23" value="$$n_X, n_Y, n_Z - \text{кажущееся ускорение(акселерометр)} \\&lt;br&gt;\omega_X, \omega_Y, \omega_Z - \text{Угловая скорость(гироскоп)}\\&lt;br&gt;m_X, m_Y - \text{вектор магнитной индукции(магнитометр)}\\&lt;br&gt;\varphi - \text{широта}, \lambda - \text{долгота}, h - \text{долгота}\\&lt;br&gt;\psi - \text{рысканье}, \theta - \text{тангаж}, \gamma - \text{крен}$$" style="text;html=1;strokeColor=none;fillColor=none;align=center;verticalAlign=middle;whiteSpace=wrap;rounded=0;fontSize=14;" parent="1" vertex="1">
                    <mxGeometry x="60" y="440" width="260" height="150" as="geometry"/>
                </mxCell>
                <mxCell id="24" value="$$\psi, \theta, \gamma$$" style="text;html=1;strokeColor=none;fillColor=none;align=center;verticalAlign=middle;whiteSpace=wrap;rounded=0;fontSize=14;" parent="1" vertex="1">
                    <mxGeometry x="450" y="265" width="60" height="30" as="geometry"/>
                </mxCell>
                <mxCell id="25" value="" style="endArrow=classic;html=1;fontSize=14;exitX=1;exitY=0.5;exitDx=0;exitDy=0;" parent="1" source="3" edge="1">
                    <mxGeometry width="50" height="50" relative="1" as="geometry">
                        <mxPoint x="390" y="380" as="sourcePoint"/>
                        <mxPoint x="620" y="330" as="targetPoint"/>
                    </mxGeometry>
                </mxCell>
                <mxCell id="27" value="$$\varphi, \lambda, h$$" style="text;html=1;strokeColor=none;fillColor=none;align=center;verticalAlign=middle;whiteSpace=wrap;rounded=0;fontSize=14;" parent="1" vertex="1">
                    <mxGeometry x="540" y="300" width="40" height="20" as="geometry"/>
                </mxCell>
            </root>
        </mxGraphModel>
    </diagram>
    <diagram id="h3aEvO4AbJVzIlha7t-1" name="Page-2">
        <mxGraphModel dx="1118" dy="480" grid="1" gridSize="10" guides="1" tooltips="1" connect="1" arrows="1" fold="1" page="1" pageScale="1" pageWidth="850" pageHeight="1100" math="1" shadow="0">
            <root>
                <mxCell id="M8gKZYO5L-6JeLcKQIqH-0"/>
                <mxCell id="M8gKZYO5L-6JeLcKQIqH-1" parent="M8gKZYO5L-6JeLcKQIqH-0"/>
                <mxCell id="M8gKZYO5L-6JeLcKQIqH-2" value="Алгоритм определения ориентации&lt;br&gt;" style="text;html=1;strokeColor=none;fillColor=none;align=center;verticalAlign=middle;whiteSpace=wrap;rounded=0;fontSize=14;" parent="M8gKZYO5L-6JeLcKQIqH-1" vertex="1">
                    <mxGeometry x="360" y="20" width="130" height="20" as="geometry"/>
                </mxCell>
                <mxCell id="JScFRjRitNYovvPW0Uib-2" value="&lt;font style=&quot;font-size: 12px&quot;&gt;$$\theta_{accel} = \frac{n_X}{n_Z}\\&lt;br&gt;\gamma_{accel} = \frac{n_Y}{n_Z} $$&lt;/font&gt;" style="rounded=0;whiteSpace=wrap;html=1;fillColor=none;fontSize=14;" parent="M8gKZYO5L-6JeLcKQIqH-1" vertex="1">
                    <mxGeometry x="160" y="320" width="120" height="120" as="geometry"/>
                </mxCell>
                <mxCell id="hSeFY6VbjkphRduKZwkJ-2" value="" style="edgeStyle=orthogonalEdgeStyle;rounded=0;orthogonalLoop=1;jettySize=auto;html=1;fontSize=14;" parent="M8gKZYO5L-6JeLcKQIqH-1" source="JScFRjRitNYovvPW0Uib-3" target="hSeFY6VbjkphRduKZwkJ-0" edge="1">
                    <mxGeometry relative="1" as="geometry"/>
                </mxCell>
                <mxCell id="JScFRjRitNYovvPW0Uib-3" value="&lt;font style=&quot;font-size: 12px&quot;&gt;$$\psi_{magne} = \frac{m_X}{m_Y}$$&lt;/font&gt;" style="rounded=0;whiteSpace=wrap;html=1;fillColor=none;fontSize=14;" parent="M8gKZYO5L-6JeLcKQIqH-1" vertex="1">
                    <mxGeometry x="365" y="320" width="120" height="120" as="geometry"/>
                </mxCell>
                <mxCell id="JScFRjRitNYovvPW0Uib-4" value="&lt;font style=&quot;font-size: 12px&quot;&gt;$$\theta_{gyro} = \int{\omega_X}\\&lt;br&gt;\gamma_{gyro} = \int{\omega_Y}\\&lt;br&gt;\psi_{gyro} = \int{\omega_Z}$$&lt;/font&gt;" style="rounded=0;whiteSpace=wrap;html=1;fillColor=none;fontSize=14;" parent="M8gKZYO5L-6JeLcKQIqH-1" vertex="1">
                    <mxGeometry x="570" y="320" width="120" height="120" as="geometry"/>
                </mxCell>
                <mxCell id="AnVh3OFpG5dAJLrPK-i0-4" value="" style="edgeStyle=orthogonalEdgeStyle;rounded=0;orthogonalLoop=1;jettySize=auto;html=1;fontSize=14;" parent="M8gKZYO5L-6JeLcKQIqH-1" source="JScFRjRitNYovvPW0Uib-11" target="JScFRjRitNYovvPW0Uib-3" edge="1">
                    <mxGeometry relative="1" as="geometry"/>
                </mxCell>
                <mxCell id="JScFRjRitNYovvPW0Uib-11" value="&lt;font style=&quot;font-size: 12px&quot;&gt;$$n_X, n_Y, n_Z, \\&lt;br&gt;\omega_X, \omega_Y, \omega_Z,\\&lt;br&gt;m_X, m_Y$$&lt;/font&gt;" style="shape=parallelogram;perimeter=parallelogramPerimeter;whiteSpace=wrap;html=1;fixedSize=1;fillColor=none;fontSize=14;" parent="M8gKZYO5L-6JeLcKQIqH-1" vertex="1">
                    <mxGeometry x="365" y="200" width="120" height="60" as="geometry"/>
                </mxCell>
                <mxCell id="AnVh3OFpG5dAJLrPK-i0-1" value="" style="edgeStyle=orthogonalEdgeStyle;rounded=0;orthogonalLoop=1;jettySize=auto;html=1;fontSize=14;" parent="M8gKZYO5L-6JeLcKQIqH-1" source="AnVh3OFpG5dAJLrPK-i0-0" target="JScFRjRitNYovvPW0Uib-11" edge="1">
                    <mxGeometry relative="1" as="geometry"/>
                </mxCell>
                <mxCell id="AnVh3OFpG5dAJLrPK-i0-0" value="начало" style="ellipse;whiteSpace=wrap;html=1;fillColor=none;fontSize=14;" parent="M8gKZYO5L-6JeLcKQIqH-1" vertex="1">
                    <mxGeometry x="370" y="90" width="110" height="70" as="geometry"/>
                </mxCell>
                <mxCell id="AnVh3OFpG5dAJLrPK-i0-2" value="" style="endArrow=classic;html=1;fontSize=14;entryX=0.5;entryY=0;entryDx=0;entryDy=0;edgeStyle=orthogonalEdgeStyle;rounded=0;exitX=0;exitY=0.5;exitDx=0;exitDy=0;" parent="M8gKZYO5L-6JeLcKQIqH-1" source="JScFRjRitNYovvPW0Uib-11" target="JScFRjRitNYovvPW0Uib-2" edge="1">
                    <mxGeometry width="50" height="50" relative="1" as="geometry">
                        <mxPoint x="420" y="420" as="sourcePoint"/>
                        <mxPoint x="470" y="370" as="targetPoint"/>
                    </mxGeometry>
                </mxCell>
                <mxCell id="AnVh3OFpG5dAJLrPK-i0-5" value="" style="endArrow=classic;html=1;fontSize=14;exitX=1;exitY=0.5;exitDx=0;exitDy=0;entryX=0.5;entryY=0;entryDx=0;entryDy=0;edgeStyle=orthogonalEdgeStyle;rounded=0;" parent="M8gKZYO5L-6JeLcKQIqH-1" source="JScFRjRitNYovvPW0Uib-11" target="JScFRjRitNYovvPW0Uib-4" edge="1">
                    <mxGeometry width="50" height="50" relative="1" as="geometry">
                        <mxPoint x="400" y="350" as="sourcePoint"/>
                        <mxPoint x="450" y="300" as="targetPoint"/>
                    </mxGeometry>
                </mxCell>
                <mxCell id="j6tbKPZB2ynyiP45Kh8a-0" value="&lt;font style=&quot;font-size: 12px&quot;&gt;$$n_X, n_Y, n_Z$$&lt;/font&gt;" style="text;html=1;strokeColor=none;fillColor=none;align=center;verticalAlign=middle;whiteSpace=wrap;rounded=0;fontSize=14;" parent="M8gKZYO5L-6JeLcKQIqH-1" vertex="1">
                    <mxGeometry x="250" y="200" width="40" height="20" as="geometry"/>
                </mxCell>
                <mxCell id="j6tbKPZB2ynyiP45Kh8a-1" value="&lt;font style=&quot;font-size: 12px&quot;&gt;$$\omega_X, \omega_Y, \omega_Z$$&lt;/font&gt;" style="text;html=1;strokeColor=none;fillColor=none;align=center;verticalAlign=middle;whiteSpace=wrap;rounded=0;fontSize=14;" parent="M8gKZYO5L-6JeLcKQIqH-1" vertex="1">
                    <mxGeometry x="560" y="200" width="40" height="20" as="geometry"/>
                </mxCell>
                <mxCell id="Cmpg_tT9MDa5lbAh97vx-1" value="" style="edgeStyle=orthogonalEdgeStyle;rounded=0;orthogonalLoop=1;jettySize=auto;html=1;fontSize=14;" parent="M8gKZYO5L-6JeLcKQIqH-1" source="hSeFY6VbjkphRduKZwkJ-0" target="Cmpg_tT9MDa5lbAh97vx-0" edge="1">
                    <mxGeometry relative="1" as="geometry"/>
                </mxCell>
                <mxCell id="hSeFY6VbjkphRduKZwkJ-0" value="&lt;font style=&quot;font-size: 12px&quot;&gt;$$\psi = K_{gyro}\psi_{gyro} + (1 - K_{gyro})\psi_{magne}\\&lt;br&gt;\theta = K_{gyro}\theta_{gyro} + (1 - K_{gyro})\theta_{accel}\\&lt;br&gt;\gamma = K_{gyro}\gamma_{gyro} + (1 - K_{gyro})\gamma_{accel}$$&lt;/font&gt;" style="whiteSpace=wrap;html=1;fillColor=none;fontSize=14;" parent="M8gKZYO5L-6JeLcKQIqH-1" vertex="1">
                    <mxGeometry x="280" y="480" width="290" height="90" as="geometry"/>
                </mxCell>
                <mxCell id="hSeFY6VbjkphRduKZwkJ-1" value="" style="endArrow=classic;html=1;fontSize=14;exitX=0.5;exitY=1;exitDx=0;exitDy=0;entryX=0;entryY=0.5;entryDx=0;entryDy=0;edgeStyle=orthogonalEdgeStyle;rounded=0;" parent="M8gKZYO5L-6JeLcKQIqH-1" source="JScFRjRitNYovvPW0Uib-2" target="hSeFY6VbjkphRduKZwkJ-0" edge="1">
                    <mxGeometry width="50" height="50" relative="1" as="geometry">
                        <mxPoint x="400" y="510" as="sourcePoint"/>
                        <mxPoint x="450" y="460" as="targetPoint"/>
                    </mxGeometry>
                </mxCell>
                <mxCell id="hSeFY6VbjkphRduKZwkJ-3" value="" style="endArrow=classic;html=1;fontSize=14;exitX=0.5;exitY=1;exitDx=0;exitDy=0;entryX=1;entryY=0.5;entryDx=0;entryDy=0;edgeStyle=orthogonalEdgeStyle;rounded=0;" parent="M8gKZYO5L-6JeLcKQIqH-1" source="JScFRjRitNYovvPW0Uib-4" target="hSeFY6VbjkphRduKZwkJ-0" edge="1">
                    <mxGeometry width="50" height="50" relative="1" as="geometry">
                        <mxPoint x="400" y="510" as="sourcePoint"/>
                        <mxPoint x="450" y="460" as="targetPoint"/>
                    </mxGeometry>
                </mxCell>
                <mxCell id="hSeFY6VbjkphRduKZwkJ-4" value="&lt;font style=&quot;font-size: 12px&quot;&gt;$$m_X, m_Y$$&lt;/font&gt;" style="text;html=1;align=center;verticalAlign=middle;resizable=0;points=[];autosize=1;fontSize=14;" parent="M8gKZYO5L-6JeLcKQIqH-1" vertex="1">
                    <mxGeometry x="420" y="280" width="100" height="20" as="geometry"/>
                </mxCell>
                <mxCell id="hSeFY6VbjkphRduKZwkJ-5" value="&lt;font style=&quot;font-size: 12px&quot;&gt;$$\theta_{accel}\\&lt;br&gt;\gamma_{accel}$$&lt;/font&gt;" style="text;html=1;strokeColor=none;fillColor=none;align=center;verticalAlign=middle;whiteSpace=wrap;rounded=0;fontSize=14;" parent="M8gKZYO5L-6JeLcKQIqH-1" vertex="1">
                    <mxGeometry x="170" y="480" width="40" height="20" as="geometry"/>
                </mxCell>
                <mxCell id="hSeFY6VbjkphRduKZwkJ-7" value="$$\theta_{gyro}\\&lt;br&gt;\gamma_{gyro}\\&lt;br&gt;\psi_{gyro}$$" style="text;html=1;strokeColor=none;fillColor=none;align=center;verticalAlign=middle;whiteSpace=wrap;rounded=0;fontSize=14;" parent="M8gKZYO5L-6JeLcKQIqH-1" vertex="1">
                    <mxGeometry x="640" y="480" width="40" height="20" as="geometry"/>
                </mxCell>
                <mxCell id="hSeFY6VbjkphRduKZwkJ-10" value="&lt;span style=&quot;font-size: 12px&quot;&gt;$$\psi_{magne} $$&lt;/span&gt;" style="text;html=1;strokeColor=none;fillColor=none;align=center;verticalAlign=middle;whiteSpace=wrap;rounded=0;fontSize=14;" parent="M8gKZYO5L-6JeLcKQIqH-1" vertex="1">
                    <mxGeometry x="440" y="450" width="40" height="20" as="geometry"/>
                </mxCell>
                <mxCell id="Cmpg_tT9MDa5lbAh97vx-0" value="Выход" style="ellipse;whiteSpace=wrap;html=1;fillColor=none;fontSize=14;" parent="M8gKZYO5L-6JeLcKQIqH-1" vertex="1">
                    <mxGeometry x="365" y="630" width="120" height="80" as="geometry"/>
                </mxCell>
                <mxCell id="Cmpg_tT9MDa5lbAh97vx-2" value="$$\theta\\&lt;br&gt;\gamma\\&lt;br&gt;\psi$$" style="text;html=1;strokeColor=none;fillColor=none;align=center;verticalAlign=middle;whiteSpace=wrap;rounded=0;fontSize=14;" parent="M8gKZYO5L-6JeLcKQIqH-1" vertex="1">
                    <mxGeometry x="440" y="593" width="40" height="20" as="geometry"/>
                </mxCell>
            </root>
        </mxGraphModel>
    </diagram>
    <diagram id="YT7Eb4l32kN6Ms-JGzpp" name="Page-3">
        <mxGraphModel dx="1118" dy="480" grid="1" gridSize="10" guides="1" tooltips="1" connect="1" arrows="1" fold="1" page="1" pageScale="1" pageWidth="850" pageHeight="1100" math="1" shadow="0">
            <root>
                <mxCell id="1-tvEk5X5YaPW3hFx_XC-0"/>
                <mxCell id="1-tvEk5X5YaPW3hFx_XC-1" parent="1-tvEk5X5YaPW3hFx_XC-0"/>
                <mxCell id="Ztf4LAtmPx4fV3btlx92-0" value="Алгоритм определения положения" style="text;html=1;strokeColor=none;fillColor=none;align=center;verticalAlign=middle;whiteSpace=wrap;rounded=0;fontSize=14;" parent="1-tvEk5X5YaPW3hFx_XC-1" vertex="1">
                    <mxGeometry x="360" y="40" width="130" as="geometry"/>
                </mxCell>
                <mxCell id="dDb1mZJ_SYZpSstTfDnZ-0" value="" style="edgeStyle=orthogonalEdgeStyle;rounded=0;orthogonalLoop=1;jettySize=auto;html=1;fontSize=14;" parent="1-tvEk5X5YaPW3hFx_XC-1" source="MtvzIzdepUXEu_s1V7FI-2" target="LM1jdzbpDQi1rL_h45i1-0" edge="1">
                    <mxGeometry relative="1" as="geometry"/>
                </mxCell>
                <mxCell id="MtvzIzdepUXEu_s1V7FI-2" value="&lt;font style=&quot;font-size: 12px&quot;&gt;начало&lt;/font&gt;" style="ellipse;whiteSpace=wrap;html=1;fillColor=none;fontSize=14;" parent="1-tvEk5X5YaPW3hFx_XC-1" vertex="1">
                    <mxGeometry x="365" y="80" width="120" height="80" as="geometry"/>
                </mxCell>
                <mxCell id="fhS0cxaEvarjp4QzSppQ-1" value="" style="edgeStyle=orthogonalEdgeStyle;rounded=0;orthogonalLoop=1;jettySize=auto;html=1;fontSize=14;" parent="1-tvEk5X5YaPW3hFx_XC-1" source="LM1jdzbpDQi1rL_h45i1-0" target="fhS0cxaEvarjp4QzSppQ-0" edge="1">
                    <mxGeometry relative="1" as="geometry"/>
                </mxCell>
                <mxCell id="I1w6f3crq7vhVGYIzVAE-6" value="" style="edgeStyle=orthogonalEdgeStyle;rounded=0;orthogonalLoop=1;jettySize=auto;html=1;fontSize=14;" parent="1-tvEk5X5YaPW3hFx_XC-1" source="LM1jdzbpDQi1rL_h45i1-0" target="v5Fv_TebdnFApIuPMqdS-1" edge="1">
                    <mxGeometry relative="1" as="geometry"/>
                </mxCell>
                <mxCell id="LM1jdzbpDQi1rL_h45i1-0" value="&lt;font style=&quot;font-size: 12px&quot;&gt;$$n_X, n_Y, n_Z\\&lt;br&gt;\varphi, \lambda, h\\&lt;br&gt;\psi, \theta, \gamma$$&lt;/font&gt;" style="shape=parallelogram;perimeter=parallelogramPerimeter;whiteSpace=wrap;html=1;fixedSize=1;fillColor=none;fontSize=14;" parent="1-tvEk5X5YaPW3hFx_XC-1" vertex="1">
                    <mxGeometry x="365" y="200" width="120" height="60" as="geometry"/>
                </mxCell>
                <mxCell id="v5Fv_TebdnFApIuPMqdS-11" value="" style="edgeStyle=orthogonalEdgeStyle;rounded=0;orthogonalLoop=1;jettySize=auto;html=1;fontSize=14;" parent="1-tvEk5X5YaPW3hFx_XC-1" source="986iIy96hAlbLUl5clO3-0" target="v5Fv_TebdnFApIuPMqdS-10" edge="1">
                    <mxGeometry relative="1" as="geometry"/>
                </mxCell>
                <mxCell id="986iIy96hAlbLUl5clO3-0" value="$$\int$$" style="rounded=0;whiteSpace=wrap;html=1;fillColor=none;fontSize=14;" parent="1-tvEk5X5YaPW3hFx_XC-1" vertex="1">
                    <mxGeometry x="365" y="420" width="120" height="70" as="geometry"/>
                </mxCell>
                <mxCell id="986iIy96hAlbLUl5clO3-2" value="&lt;font style=&quot;font-size: 12px&quot;&gt;$$n_X, n_Y, n_Z\\&lt;br&gt;\psi, \theta, \gamma$$&lt;/font&gt;" style="text;html=1;strokeColor=none;fillColor=none;align=center;verticalAlign=middle;whiteSpace=wrap;rounded=0;fontSize=14;" parent="1-tvEk5X5YaPW3hFx_XC-1" vertex="1">
                    <mxGeometry x="503" y="195" width="40" height="20" as="geometry"/>
                </mxCell>
                <mxCell id="fhS0cxaEvarjp4QzSppQ-0" value="&lt;font style=&quot;font-size: 12px&quot;&gt;$$g_0(1 + 0.005302\sin^2{\varphi} -\\&lt;br&gt;0.000006\sin^2{2\varphi}) -\\&lt;br&gt;0.000003086h$$&lt;/font&gt;" style="rounded=0;whiteSpace=wrap;html=1;fillColor=none;fontSize=14;" parent="1-tvEk5X5YaPW3hFx_XC-1" vertex="1">
                    <mxGeometry x="130" y="195" width="160" height="70" as="geometry"/>
                </mxCell>
                <mxCell id="v5Fv_TebdnFApIuPMqdS-0" value="&lt;font style=&quot;font-size: 12px&quot;&gt;$$\varphi, h$$&lt;/font&gt;" style="text;html=1;align=center;verticalAlign=middle;resizable=0;points=[];autosize=1;fontSize=14;" parent="1-tvEk5X5YaPW3hFx_XC-1" vertex="1">
                    <mxGeometry x="285" y="200" width="90" height="20" as="geometry"/>
                </mxCell>
                <mxCell id="v5Fv_TebdnFApIuPMqdS-1" value="&lt;font style=&quot;font-size: 12px&quot;&gt;$$R_{XYZ}^{WGS}\cdot&lt;br&gt;\begin{pmatrix}&lt;br&gt;n_X\\&lt;br&gt;n_Y\\&lt;br&gt;n_Z&lt;br&gt;\end{pmatrix}$$&lt;/font&gt;" style="whiteSpace=wrap;html=1;fillColor=none;fontSize=14;" parent="1-tvEk5X5YaPW3hFx_XC-1" vertex="1">
                    <mxGeometry x="560" y="195" width="120" height="70" as="geometry"/>
                </mxCell>
                <mxCell id="v5Fv_TebdnFApIuPMqdS-3" value="&lt;font style=&quot;font-size: 12px&quot;&gt;$$n_{WGS}, n_{WGS}, n_{WGS}$$&lt;/font&gt;" style="text;html=1;align=center;verticalAlign=middle;resizable=0;points=[];autosize=1;fontSize=14;" parent="1-tvEk5X5YaPW3hFx_XC-1" vertex="1">
                    <mxGeometry x="450" y="320" width="210" height="20" as="geometry"/>
                </mxCell>
                <mxCell id="v5Fv_TebdnFApIuPMqdS-8" value="" style="edgeStyle=orthogonalEdgeStyle;rounded=0;orthogonalLoop=1;jettySize=auto;html=1;fontSize=14;" parent="1-tvEk5X5YaPW3hFx_XC-1" source="v5Fv_TebdnFApIuPMqdS-4" target="986iIy96hAlbLUl5clO3-0" edge="1">
                    <mxGeometry relative="1" as="geometry"/>
                </mxCell>
                <mxCell id="v5Fv_TebdnFApIuPMqdS-4" value="&lt;font style=&quot;font-size: 12px&quot;&gt;$$\begin{pmatrix}&lt;br&gt;n_{WGS}\\&lt;br&gt;n_{WGS}\\&lt;br&gt;n_{WGS} - g&lt;br&gt;\end{pmatrix}$$&lt;/font&gt;" style="rounded=0;whiteSpace=wrap;html=1;fillColor=none;fontSize=14;" parent="1-tvEk5X5YaPW3hFx_XC-1" vertex="1">
                    <mxGeometry x="365" y="310" width="120" height="70" as="geometry"/>
                </mxCell>
                <mxCell id="v5Fv_TebdnFApIuPMqdS-6" value="" style="endArrow=classic;html=1;fontSize=14;exitX=0.5;exitY=1;exitDx=0;exitDy=0;entryX=0;entryY=0.5;entryDx=0;entryDy=0;edgeStyle=orthogonalEdgeStyle;rounded=0;" parent="1-tvEk5X5YaPW3hFx_XC-1" source="fhS0cxaEvarjp4QzSppQ-0" target="v5Fv_TebdnFApIuPMqdS-4" edge="1">
                    <mxGeometry width="50" height="50" relative="1" as="geometry">
                        <mxPoint x="580" y="670" as="sourcePoint"/>
                        <mxPoint x="630" y="620" as="targetPoint"/>
                    </mxGeometry>
                </mxCell>
                <mxCell id="v5Fv_TebdnFApIuPMqdS-7" value="$$g$$" style="text;html=1;align=center;verticalAlign=middle;resizable=0;points=[];autosize=1;fontSize=14;" parent="1-tvEk5X5YaPW3hFx_XC-1" vertex="1">
                    <mxGeometry x="250" y="320" width="50" height="20" as="geometry"/>
                </mxCell>
                <mxCell id="v5Fv_TebdnFApIuPMqdS-9" value="&lt;font style=&quot;font-size: 12px&quot;&gt;$$a_{WGS}, a_{WGS}, a_{WGS}$$&lt;/font&gt;" style="text;html=1;align=center;verticalAlign=middle;resizable=0;points=[];autosize=1;fontSize=14;" parent="1-tvEk5X5YaPW3hFx_XC-1" vertex="1">
                    <mxGeometry x="390" y="390" width="210" height="20" as="geometry"/>
                </mxCell>
                <mxCell id="I1w6f3crq7vhVGYIzVAE-4" value="" style="edgeStyle=orthogonalEdgeStyle;rounded=0;orthogonalLoop=1;jettySize=auto;html=1;fontSize=14;" parent="1-tvEk5X5YaPW3hFx_XC-1" source="v5Fv_TebdnFApIuPMqdS-10" target="I1w6f3crq7vhVGYIzVAE-3" edge="1">
                    <mxGeometry relative="1" as="geometry"/>
                </mxCell>
                <mxCell id="v5Fv_TebdnFApIuPMqdS-10" value="$$\int$$" style="rounded=0;whiteSpace=wrap;html=1;fillColor=none;fontSize=14;" parent="1-tvEk5X5YaPW3hFx_XC-1" vertex="1">
                    <mxGeometry x="365" y="530" width="120" height="70" as="geometry"/>
                </mxCell>
                <mxCell id="v5Fv_TebdnFApIuPMqdS-12" value="&lt;font style=&quot;font-size: 12px&quot;&gt;$$V_{WGS}, V_{WGS}, V_{WGS}$$&lt;/font&gt;" style="text;html=1;align=center;verticalAlign=middle;resizable=0;points=[];autosize=1;fontSize=14;" parent="1-tvEk5X5YaPW3hFx_XC-1" vertex="1">
                    <mxGeometry x="390" y="500" width="210" height="20" as="geometry"/>
                </mxCell>
                <mxCell id="I1w6f3crq7vhVGYIzVAE-0" value="Выход" style="ellipse;whiteSpace=wrap;html=1;fillColor=none;fontSize=14;" parent="1-tvEk5X5YaPW3hFx_XC-1" vertex="1">
                    <mxGeometry x="365" y="750" width="120" height="80" as="geometry"/>
                </mxCell>
                <mxCell id="I1w6f3crq7vhVGYIzVAE-2" value="&lt;font style=&quot;font-size: 12px&quot;&gt;$$X_{WGS}, Y_{WGS}, Z_{WGS}$$&lt;/font&gt;" style="text;html=1;align=center;verticalAlign=middle;resizable=0;points=[];autosize=1;fontSize=14;" parent="1-tvEk5X5YaPW3hFx_XC-1" vertex="1">
                    <mxGeometry x="405" y="610" width="210" height="20" as="geometry"/>
                </mxCell>
                <mxCell id="I1w6f3crq7vhVGYIzVAE-5" value="" style="edgeStyle=orthogonalEdgeStyle;rounded=0;orthogonalLoop=1;jettySize=auto;html=1;fontSize=14;" parent="1-tvEk5X5YaPW3hFx_XC-1" source="I1w6f3crq7vhVGYIzVAE-3" target="I1w6f3crq7vhVGYIzVAE-0" edge="1">
                    <mxGeometry relative="1" as="geometry"/>
                </mxCell>
                <mxCell id="I1w6f3crq7vhVGYIzVAE-3" value="&lt;font style=&quot;font-size: 12px&quot;&gt;Перевод из нормальной в элипсоидальную СК&lt;/font&gt;" style="rounded=0;whiteSpace=wrap;html=1;fillColor=none;fontSize=14;" parent="1-tvEk5X5YaPW3hFx_XC-1" vertex="1">
                    <mxGeometry x="365" y="639" width="120" height="70" as="geometry"/>
                </mxCell>
                <mxCell id="I1w6f3crq7vhVGYIzVAE-8" value="" style="endArrow=classic;html=1;fontSize=14;exitX=0.5;exitY=1;exitDx=0;exitDy=0;entryX=1;entryY=0.5;entryDx=0;entryDy=0;edgeStyle=orthogonalEdgeStyle;rounded=0;" parent="1-tvEk5X5YaPW3hFx_XC-1" source="v5Fv_TebdnFApIuPMqdS-1" target="v5Fv_TebdnFApIuPMqdS-4" edge="1">
                    <mxGeometry width="50" height="50" relative="1" as="geometry">
                        <mxPoint x="580" y="430" as="sourcePoint"/>
                        <mxPoint x="630" y="380" as="targetPoint"/>
                    </mxGeometry>
                </mxCell>
                <mxCell id="I1w6f3crq7vhVGYIzVAE-9" value="&lt;font style=&quot;font-size: 12px&quot;&gt;$$\varphi, \lambda, h$$&lt;/font&gt;" style="text;html=1;align=center;verticalAlign=middle;resizable=0;points=[];autosize=1;fontSize=14;" parent="1-tvEk5X5YaPW3hFx_XC-1" vertex="1">
                    <mxGeometry x="390" y="720" width="140" height="20" as="geometry"/>
                </mxCell>
                <mxCell id="I1w6f3crq7vhVGYIzVAE-10" value="" style="endArrow=classic;html=1;fontSize=14;entryX=0.183;entryY=-0.017;entryDx=0;entryDy=0;entryPerimeter=0;edgeStyle=orthogonalEdgeStyle;rounded=0;" parent="1-tvEk5X5YaPW3hFx_XC-1" target="LM1jdzbpDQi1rL_h45i1-0" edge="1">
                    <mxGeometry width="50" height="50" relative="1" as="geometry">
                        <mxPoint x="425" y="730" as="sourcePoint"/>
                        <mxPoint x="120" y="420" as="targetPoint"/>
                        <Array as="points">
                            <mxPoint x="120" y="730"/>
                            <mxPoint x="120" y="170"/>
                            <mxPoint x="387" y="170"/>
                        </Array>
                    </mxGeometry>
                </mxCell>
            </root>
        </mxGraphModel>
    </diagram>
</mxfile>